<svg xmlns="http://www.w3.org/2000/svg" width="1600" height="1310" viewBox="0 0 1600 1310" role="img" aria-labelledby="title desc">
<title id="title">두 평가 집단을 잇지 않는 탑승권</title><desc id="desc">원본 1,000,000행. 전처리 평가 255,001행. 날짜 귀속 채택 706,759행 중 날짜와 라벨이 모두 있는 180,332행에서 날씨 14개 피처를 비교합니다. 같은 외부 폴드를 사용합니다. 인과 효과와 미래 운항 성능은 미검증. 도형 크기는 수량을 뜻하지 않습니다.</desc>
<rect width="1600" height="1310" fill="#FBF8F0"/>
<text x="60" y="66" fill="#304750" font-family="Noto Sans CJK KR, Malgun Gothic, Apple SD Gothic Neo, sans-serif" font-size="23" font-weight="700" text-anchor="start" style="font-variant-numeric:tabular-nums" letter-spacing="3">RESEARCH MANIFEST</text>
<text x="1540" y="66" fill="#304750" font-family="Noto Sans CJK KR, Malgun Gothic, Apple SD Gothic Neo, sans-serif" font-size="22" font-weight="400" text-anchor="end" style="font-variant-numeric:tabular-nums">01 / POPULATIONS</text>
<text x="54" y="181" fill="#304750" font-family="Noto Sans CJK KR, Malgun Gothic, Apple SD Gothic Neo, sans-serif" font-size="80" font-weight="900" text-anchor="start" style="font-variant-numeric:tabular-nums">서로 다른 집단,</text>
<text x="54" y="279" fill="#304750" font-family="Noto Sans CJK KR, Malgun Gothic, Apple SD Gothic Neo, sans-serif" font-size="80" font-weight="900" text-anchor="start" style="font-variant-numeric:tabular-nums">서로 다른 질문.</text>
<rect x="1010" y="108" width="530" height="209" fill="#E4F0F5"/>
<text x="1045" y="154" fill="#61727A" font-family="Noto Sans CJK KR, Malgun Gothic, Apple SD Gothic Neo, sans-serif" font-size="23" font-weight="400" text-anchor="start" style="font-variant-numeric:tabular-nums">출발점 / 원본 데이터</text>
<text x="1040" y="234" fill="#304750" font-family="Noto Sans CJK KR, Malgun Gothic, Apple SD Gothic Neo, sans-serif" font-size="70" font-weight="800" text-anchor="start" style="font-variant-numeric:tabular-nums">1,000,000</text>
<text x="1045" y="284" fill="#304750" font-family="Noto Sans CJK KR, Malgun Gothic, Apple SD Gothic Neo, sans-serif" font-size="23" font-weight="400" text-anchor="start" style="font-variant-numeric:tabular-nums">행</text>
<rect x="60" y="366" width="1380" height="318" fill="#E4F0F5"/>
<rect x="60" y="366" width="115" height="318" fill="#304750"/>
<text x="85" y="435" fill="#FBF8F0" font-family="Noto Sans CJK KR, Malgun Gothic, Apple SD Gothic Neo, sans-serif" font-size="60" font-weight="900" text-anchor="start" style="font-variant-numeric:tabular-nums">A</text>
<text x="210" y="418" fill="#304750" font-family="Noto Sans CJK KR, Malgun Gothic, Apple SD Gothic Neo, sans-serif" font-size="28" font-weight="700" text-anchor="start" style="font-variant-numeric:tabular-nums">전처리 평가</text>
<text x="204" y="522" fill="#304750" font-family="Noto Sans CJK KR, Malgun Gothic, Apple SD Gothic Neo, sans-serif" font-size="96" font-weight="900" text-anchor="start" style="font-variant-numeric:tabular-nums">255,001</text>
<text x="212" y="579" fill="#304750" font-family="Noto Sans CJK KR, Malgun Gothic, Apple SD Gothic Neo, sans-serif" font-size="26" font-weight="400" text-anchor="start" style="font-variant-numeric:tabular-nums">라벨이 있는 행</text>
<text x="212" y="632" fill="#304750" font-family="Noto Sans CJK KR, Malgun Gothic, Apple SD Gothic Neo, sans-serif" font-size="25" font-weight="400" text-anchor="start" style="font-variant-numeric:tabular-nums">P4 / P6의 전처리 조건 비교</text>
<line x1="853" y1="391" x2="853" y2="400" stroke="#61727A" stroke-width="1"/>
<line x1="853" y1="411" x2="853" y2="420" stroke="#61727A" stroke-width="1"/>
<line x1="853" y1="431" x2="853" y2="440" stroke="#61727A" stroke-width="1"/>
<line x1="853" y1="451" x2="853" y2="460" stroke="#61727A" stroke-width="1"/>
<line x1="853" y1="471" x2="853" y2="480" stroke="#61727A" stroke-width="1"/>
<line x1="853" y1="491" x2="853" y2="500" stroke="#61727A" stroke-width="1"/>
<line x1="853" y1="511" x2="853" y2="520" stroke="#61727A" stroke-width="1"/>
<line x1="853" y1="531" x2="853" y2="540" stroke="#61727A" stroke-width="1"/>
<line x1="853" y1="551" x2="853" y2="560" stroke="#61727A" stroke-width="1"/>
<line x1="853" y1="571" x2="853" y2="580" stroke="#61727A" stroke-width="1"/>
<line x1="853" y1="591" x2="853" y2="600" stroke="#61727A" stroke-width="1"/>
<line x1="853" y1="611" x2="853" y2="620" stroke="#61727A" stroke-width="1"/>
<line x1="853" y1="631" x2="853" y2="640" stroke="#61727A" stroke-width="1"/>
<line x1="853" y1="651" x2="853" y2="660" stroke="#61727A" stroke-width="1"/>
<text x="897" y="423" fill="#356A86" font-family="Noto Sans CJK KR, Malgun Gothic, Apple SD Gothic Neo, sans-serif" font-size="22" font-weight="700" text-anchor="start" style="font-variant-numeric:tabular-nums">질문 01</text>
<text x="897" y="480" fill="#304750" font-family="Noto Sans CJK KR, Malgun Gothic, Apple SD Gothic Neo, sans-serif" font-size="28" font-weight="700" text-anchor="start" style="font-variant-numeric:tabular-nums">전처리는 더 타당해졌지만</text>
<text x="897" y="527" fill="#304750" font-family="Noto Sans CJK KR, Malgun Gothic, Apple SD Gothic Neo, sans-serif" font-size="28" font-weight="700" text-anchor="start" style="font-variant-numeric:tabular-nums">Macro F1 향상은</text>
<text x="897" y="574" fill="#304750" font-family="Noto Sans CJK KR, Malgun Gothic, Apple SD Gothic Neo, sans-serif" font-size="28" font-weight="700" text-anchor="start" style="font-variant-numeric:tabular-nums">확인되지 않았습니다.</text>
<rect x="900" y="608" width="2" height="38" fill="#304750"/>
<rect x="910" y="608" width="5" height="38" fill="#304750"/>
<rect x="920" y="608" width="1" height="38" fill="#304750"/>
<rect x="930" y="608" width="3" height="38" fill="#304750"/>
<rect x="940" y="608" width="7" height="38" fill="#304750"/>
<rect x="950" y="608" width="2" height="38" fill="#304750"/>
<rect x="960" y="608" width="4" height="38" fill="#304750"/>
<rect x="970" y="608" width="1" height="38" fill="#304750"/>
<rect x="980" y="608" width="5" height="38" fill="#304750"/>
<rect x="990" y="608" width="3" height="38" fill="#304750"/>
<rect x="1000" y="608" width="2" height="38" fill="#304750"/>
<rect x="1010" y="608" width="6" height="38" fill="#304750"/>
<rect x="1020" y="608" width="1" height="38" fill="#304750"/>
<rect x="1030" y="608" width="4" height="38" fill="#304750"/>
<rect x="1040" y="608" width="2" height="38" fill="#304750"/>
<rect x="1050" y="608" width="5" height="38" fill="#304750"/>
<rect x="1060" y="608" width="1" height="38" fill="#304750"/>
<rect x="1070" y="608" width="3" height="38" fill="#304750"/>
<rect x="1080" y="608" width="6" height="38" fill="#304750"/>
<rect x="1090" y="608" width="2" height="38" fill="#304750"/>
<rect x="159" y="730" width="1381" height="364" fill="#D5BD8F"/>
<rect x="159" y="730" width="115" height="364" fill="#304750"/>
<text x="184" y="799" fill="#FBF8F0" font-family="Noto Sans CJK KR, Malgun Gothic, Apple SD Gothic Neo, sans-serif" font-size="60" font-weight="900" text-anchor="start" style="font-variant-numeric:tabular-nums">B</text>
<text x="308" y="782" fill="#304750" font-family="Noto Sans CJK KR, Malgun Gothic, Apple SD Gothic Neo, sans-serif" font-size="28" font-weight="700" text-anchor="start" style="font-variant-numeric:tabular-nums">날짜 귀속 채택 706,759행</text>
<text x="308" y="830" fill="#304750" font-family="Noto Sans CJK KR, Malgun Gothic, Apple SD Gothic Neo, sans-serif" font-size="24" font-weight="400" text-anchor="start" style="font-variant-numeric:tabular-nums">그중 날짜와 라벨이 모두 있는</text>
<text x="302" y="938" fill="#304750" font-family="Noto Sans CJK KR, Malgun Gothic, Apple SD Gothic Neo, sans-serif" font-size="96" font-weight="900" text-anchor="start" style="font-variant-numeric:tabular-nums">180,332</text>
<text x="310" y="990" fill="#304750" font-family="Noto Sans CJK KR, Malgun Gothic, Apple SD Gothic Neo, sans-serif" font-size="25" font-weight="400" text-anchor="start" style="font-variant-numeric:tabular-nums">날씨 유무를 비교하는 동일 집단</text>
<text x="310" y="1041" fill="#304750" font-family="Noto Sans CJK KR, Malgun Gothic, Apple SD Gothic Neo, sans-serif" font-size="23" font-weight="400" text-anchor="start" style="font-variant-numeric:tabular-nums">P6_clean을 두 조건에서 각각 다시 학습</text>
<line x1="953" y1="752" x2="953" y2="761" stroke="#61727A" stroke-width="1"/>
<line x1="953" y1="772" x2="953" y2="781" stroke="#61727A" stroke-width="1"/>
<line x1="953" y1="792" x2="953" y2="801" stroke="#61727A" stroke-width="1"/>
<line x1="953" y1="812" x2="953" y2="821" stroke="#61727A" stroke-width="1"/>
<line x1="953" y1="832" x2="953" y2="841" stroke="#61727A" stroke-width="1"/>
<line x1="953" y1="852" x2="953" y2="861" stroke="#61727A" stroke-width="1"/>
<line x1="953" y1="872" x2="953" y2="881" stroke="#61727A" stroke-width="1"/>
<line x1="953" y1="892" x2="953" y2="901" stroke="#61727A" stroke-width="1"/>
<line x1="953" y1="912" x2="953" y2="921" stroke="#61727A" stroke-width="1"/>
<line x1="953" y1="932" x2="953" y2="941" stroke="#61727A" stroke-width="1"/>
<line x1="953" y1="952" x2="953" y2="961" stroke="#61727A" stroke-width="1"/>
<line x1="953" y1="972" x2="953" y2="981" stroke="#61727A" stroke-width="1"/>
<line x1="953" y1="992" x2="953" y2="1001" stroke="#61727A" stroke-width="1"/>
<line x1="953" y1="1012" x2="953" y2="1021" stroke="#61727A" stroke-width="1"/>
<line x1="953" y1="1032" x2="953" y2="1041" stroke="#61727A" stroke-width="1"/>
<line x1="953" y1="1052" x2="953" y2="1061" stroke="#61727A" stroke-width="1"/>
<text x="996" y="788" fill="#356A86" font-family="Noto Sans CJK KR, Malgun Gothic, Apple SD Gothic Neo, sans-serif" font-size="22" font-weight="700" text-anchor="start" style="font-variant-numeric:tabular-nums">질문 02</text>
<text x="996" y="847" fill="#304750" font-family="Noto Sans CJK KR, Malgun Gothic, Apple SD Gothic Neo, sans-serif" font-size="34" font-weight="700" text-anchor="start" style="font-variant-numeric:tabular-nums">새 정보를 더하면</text>
<text x="996" y="902" fill="#304750" font-family="Noto Sans CJK KR, Malgun Gothic, Apple SD Gothic Neo, sans-serif" font-size="34" font-weight="700" text-anchor="start" style="font-variant-numeric:tabular-nums">성능이 달라지나요?</text>
<text x="996" y="964" fill="#304750" font-family="Noto Sans CJK KR, Malgun Gothic, Apple SD Gothic Neo, sans-serif" font-size="26" font-weight="400" text-anchor="start" style="font-variant-numeric:tabular-nums">날씨 14개 피처 추가</text>
<text x="996" y="1022" fill="#304750" font-family="Noto Sans CJK KR, Malgun Gothic, Apple SD Gothic Neo, sans-serif" font-size="25" font-weight="400" text-anchor="start" style="font-variant-numeric:tabular-nums">같은 내부 선택 절차</text>
<line x1="60" y1="1141" x2="1540" y2="1141" stroke="#304750" stroke-width="3"/>
<text x="60" y="1196" fill="#356A86" font-family="Noto Sans CJK KR, Malgun Gothic, Apple SD Gothic Neo, sans-serif" font-size="26" font-weight="700" text-anchor="start" style="font-variant-numeric:tabular-nums">비교 원칙</text>
<text x="325" y="1196" fill="#304750" font-family="Noto Sans CJK KR, Malgun Gothic, Apple SD Gothic Neo, sans-serif" font-size="29" font-weight="700" text-anchor="start" style="font-variant-numeric:tabular-nums">같은 180,332행 · 같은 시드 · 같은 외부 폴드</text>
<text x="60" y="1254" fill="#61727A" font-family="Noto Sans CJK KR, Malgun Gothic, Apple SD Gothic Neo, sans-serif" font-size="21" font-weight="400" text-anchor="start" style="font-variant-numeric:tabular-nums">도형 크기는 수량을 뜻하지 않습니다.</text>
<text x="1540" y="1254" fill="#61727A" font-family="Noto Sans CJK KR, Malgun Gothic, Apple SD Gothic Neo, sans-serif" font-size="21" font-weight="400" text-anchor="end" style="font-variant-numeric:tabular-nums">인과 효과와 미래 운항 성능은 미검증</text>
</svg>
